<svg width="17" height="16" viewBox="0 0 17 16" fill="none" xmlns="http://www.w3.org/2000/svg">
<path d="M12.014 7.30874L11.1004 8.00474C11.0548 8.04074 11.0068 8.04074 10.9564 8.00474C10.9068 7.96794 10.8908 7.92234 10.9092 7.86874L11.2636 6.73594L10.3228 5.99994C10.278 5.96394 10.2636 5.91834 10.2828 5.86394C10.3004 5.80874 10.3412 5.78154 10.4052 5.78154H11.5364L11.8916 4.66394C11.9092 4.60874 11.95 4.58154 12.014 4.58154C12.078 4.58154 12.118 4.60874 12.1364 4.66394L12.4916 5.78154H13.6228C13.6868 5.78154 13.7276 5.80874 13.746 5.86394C13.7636 5.91834 13.75 5.96394 13.7052 5.99994L12.7636 6.73594L13.1188 7.86794C13.1364 7.92234 13.1204 7.96794 13.0708 8.00394C13.0204 8.04074 12.9732 8.04074 12.9276 8.00394L12.014 7.30874Z" fill="#216ED7"/>
<path fill-rule="evenodd" clip-rule="evenodd" d="M16.0172 6.40005C16.0172 7.52805 15.55 8.54725 14.7988 9.27445V11.9929C14.7987 12.0916 14.7766 12.1891 14.7342 12.2783C14.6917 12.3674 14.63 12.446 14.5534 12.5084C14.4768 12.5707 14.3873 12.6152 14.2914 12.6387C14.1955 12.6622 14.0955 12.664 13.9988 12.6441L11.9084 12.2121L9.81721 12.6441C9.72049 12.664 9.62055 12.6622 9.52463 12.6387C9.42871 12.6152 9.33921 12.5707 9.26262 12.5084C9.18604 12.446 9.12428 12.3674 9.08184 12.2783C9.03939 12.1891 9.01731 12.0916 9.01721 11.9929V9.04565C8.58912 8.56025 8.28521 7.97821 8.13156 7.3495C7.97792 6.7208 7.97912 6.06419 8.13507 5.43606C8.29103 4.80792 8.59707 4.227 9.02694 3.74316C9.4568 3.25933 9.99766 2.88703 10.6031 2.65822C11.2085 2.42941 11.8604 2.35092 12.5028 2.42949C13.1452 2.50806 13.759 2.74134 14.2914 3.10931C14.8238 3.47728 15.259 3.96895 15.5596 4.54212C15.8602 5.11529 16.0172 5.75284 16.0172 6.40005ZM12.0172 9.20005C12.7598 9.20005 13.472 8.90506 13.9971 8.37995C14.5222 7.85485 14.8172 7.14266 14.8172 6.40005C14.8172 5.65745 14.5222 4.94526 13.9971 4.42016C13.472 3.89505 12.7598 3.60005 12.0172 3.60005C11.2746 3.60005 10.5624 3.89505 10.0373 4.42016C9.51221 4.94526 9.21721 5.65745 9.21721 6.40005C9.21721 7.14266 9.51221 7.85485 10.0373 8.37995C10.5624 8.90506 11.2746 9.20005 12.0172 9.20005ZM12.0172 10.4001C12.5788 10.4001 13.1132 10.2841 13.5988 10.0753V11.3361L11.9084 10.9873L10.2172 11.3361V9.97285C10.7754 10.2545 11.392 10.4009 12.0172 10.4001Z" fill="#216ED7"/>
<path d="M7.41732 4.39995H2.81732V13.2H15.4173C15.5764 13.2 15.7291 13.2632 15.8416 13.3757C15.9541 13.4882 16.0173 13.6408 16.0173 13.8C16.0173 13.9591 15.9541 14.1117 15.8416 14.2242C15.7291 14.3367 15.5764 14.4 15.4173 14.4H2.81732C2.48692 14.4 2.20452 14.2824 1.96932 14.048C1.85584 13.9381 1.76606 13.8062 1.70552 13.6604C1.64498 13.5146 1.61496 13.3578 1.61732 13.2V4.39995C1.61732 4.07035 1.73492 3.78715 1.96932 3.55195C2.20452 3.31755 2.48692 3.19995 2.81732 3.19995H7.41732C7.57645 3.19995 7.72906 3.26317 7.84158 3.37569C7.9541 3.48821 8.01732 3.64082 8.01732 3.79995C8.01732 3.95908 7.9541 4.11169 7.84158 4.22422C7.72906 4.33674 7.57645 4.39995 7.41732 4.39995Z" fill="#216ED7"/>
</svg>
