<svg width="16" height="16" viewBox="0 0 16 16" fill="none" xmlns="http://www.w3.org/2000/svg">
<path d="M11.1968 7.30874L10.2832 8.00474C10.2376 8.04074 10.1896 8.04074 10.1392 8.00474C10.0896 7.96794 10.0736 7.92234 10.092 7.86874L10.4464 6.73594L9.50558 5.99994C9.46078 5.96394 9.44638 5.91834 9.46558 5.86394C9.48318 5.80874 9.52398 5.78154 9.58798 5.78154H10.7192L11.0744 4.66394C11.092 4.60874 11.1328 4.58154 11.1968 4.58154C11.2608 4.58154 11.3008 4.60874 11.3192 4.66394L11.6744 5.78154H12.8056C12.8696 5.78154 12.9104 5.80874 12.9288 5.86394C12.9464 5.91834 12.9328 5.96394 12.888 5.99994L11.9464 6.73594L12.3016 7.86794C12.3192 7.92234 12.3032 7.96794 12.2536 8.00394C12.2032 8.04074 12.156 8.04074 12.1104 8.00394L11.1968 7.30874Z" fill="#101E44"/>
<path fill-rule="evenodd" clip-rule="evenodd" d="M15.2 6.40005C15.2 7.52805 14.7328 8.54725 13.9816 9.27445V11.9929C13.9814 12.0916 13.9594 12.1891 13.9169 12.2783C13.8745 12.3674 13.8127 12.446 13.7361 12.5084C13.6596 12.5707 13.5701 12.6152 13.4741 12.6387C13.3782 12.6622 13.2783 12.664 13.1816 12.6441L11.0912 12.2121L8.99995 12.6441C8.90323 12.664 8.80329 12.6622 8.70737 12.6387C8.61145 12.6152 8.52195 12.5707 8.44536 12.5084C8.36878 12.446 8.30702 12.3674 8.26457 12.2783C8.22213 12.1891 8.20005 12.0916 8.19995 11.9929V9.04565C7.77186 8.56025 7.46795 7.97821 7.3143 7.3495C7.16066 6.7208 7.16186 6.06419 7.31781 5.43606C7.47377 4.80792 7.77981 4.227 8.20968 3.74316C8.63954 3.25933 9.18039 2.88703 9.78581 2.65822C10.3912 2.42941 11.0431 2.35092 11.6855 2.42949C12.328 2.50806 12.9417 2.74134 13.4742 3.10931C14.0066 3.47728 14.4418 3.96895 14.7424 4.54212C15.043 5.11529 15.2 5.75284 15.2 6.40005ZM11.2 9.20005C11.9426 9.20005 12.6547 8.90506 13.1799 8.37995C13.705 7.85485 14 7.14266 14 6.40005C14 5.65745 13.705 4.94526 13.1799 4.42016C12.6547 3.89505 11.9426 3.60005 11.2 3.60005C10.4573 3.60005 9.74515 3.89505 9.22005 4.42016C8.69495 4.94526 8.39995 5.65745 8.39995 6.40005C8.39995 7.14266 8.69495 7.85485 9.22005 8.37995C9.74515 8.90506 10.4573 9.20005 11.2 9.20005ZM11.2 10.4001C11.7616 10.4001 12.296 10.2841 12.7816 10.0753V11.3361L11.0912 10.9873L9.39995 11.3361V9.97285C9.95812 10.2545 10.5747 10.4009 11.2 10.4001Z" fill="#101E44"/>
<path d="M6.60006 4.39995H2.00006V13.2H14.6001C14.7592 13.2 14.9118 13.2632 15.0243 13.3757C15.1368 13.4882 15.2001 13.6408 15.2001 13.8C15.2001 13.9591 15.1368 14.1117 15.0243 14.2242C14.9118 14.3367 14.7592 14.4 14.6001 14.4H2.00006C1.66966 14.4 1.38726 14.2824 1.15206 14.048C1.03857 13.9381 0.948795 13.8062 0.888255 13.6604C0.827715 13.5146 0.797698 13.3578 0.800056 13.2V4.39995C0.800056 4.07035 0.917656 3.78715 1.15206 3.55195C1.38726 3.31755 1.66966 3.19995 2.00006 3.19995H6.60006C6.75919 3.19995 6.9118 3.26317 7.02432 3.37569C7.13684 3.48821 7.20006 3.64082 7.20006 3.79995C7.20006 3.95908 7.13684 4.11169 7.02432 4.22422C6.9118 4.33674 6.75919 4.39995 6.60006 4.39995Z" fill="#101E44"/>
</svg>
