<?xml version="1.0" encoding="UTF-8"?>
<svg id="Layer_1" data-name="Layer 1" xmlns="http://www.w3.org/2000/svg" viewBox="0 0 1000 600">
  <defs>
    <style>
      .cls-1 {
        fill: #fff;
      }
    </style>
  </defs>
  <polygon class="cls-1" points="714.92 281.67 812.17 327.32 805.79 415.86 714.92 415.86 714.92 281.67"/>
  <path class="cls-1" d="M714.95,211.54h108.26l-4.56,75.13-103.73-49.69v-25.41s.01-.03.03-.03Z"/>
  <polygon class="cls-1" points="919.22 211.54 919.22 330.75 855.47 300.95 862.18 211.54 919.22 211.54 919.22 211.54"/>
  <path class="cls-1" d="M849.58,341.75l69.64,32.99v41.09s-.01.03-.03.03h-74.4l4.79-74.11Z"/>
  <g>
    <path class="cls-1" d="M39.17,349.05c0-41.35,28.65-69.73,71.08-69.73,19.46,0,36.22,6.76,50.54,20.54l-18.38,19.73c-8.11-8.11-19.73-12.7-31.62-12.7-24.33,0-41.35,17.3-41.35,42.16s16.76,42.16,41.35,42.16c12.97,0,24.87-4.87,32.97-13.78l18.65,20.27c-14.87,14.33-31.35,21.08-51.89,21.08-43.25,0-71.35-27.57-71.35-69.73Z"/>
    <path class="cls-1" d="M186.74,226.61h30.27v189.2h-30.27v-189.2Z"/>
    <path class="cls-1" d="M383.23,360.4h-106.76c2.43,19.46,18.65,31.89,42.16,31.89,15.14,0,30.27-5.41,38.38-13.79l18.38,17.84c-13.24,14.33-34.6,23.24-57.57,23.24-44.06,0-72.44-27.84-72.44-70.54s27.84-69.46,69.19-69.46c47.03,0,72.98,30.81,68.65,80.82ZM276.74,336.89h77.57c-2.16-18.92-16.76-31.08-38.92-31.08s-34.87,11.35-38.65,31.08Z"/>
    <path class="cls-1" d="M512.42,291.21l-13.51,24.6c-7.57-5.14-14.33-7.3-22.43-7.3-21.62,0-35.41,15.95-35.41,42.16v65.14h-30.27v-133.52h27.03l.27,20.54c10.54-16.22,23.79-23.24,40.54-23.24,12.97,0,25.68,4.32,33.78,11.62Z"/>
    <path class="cls-1" d="M660.26,282.29v133.52h-27.03l-.27-17.84c-10.27,12.97-28.11,20.81-48.65,20.81-39.19,0-66.22-28.65-66.22-69.73s27.03-69.73,66.22-69.73c20.81,0,38.38,7.84,48.65,20.81l.27-17.84h27.03ZM629.99,349.05c0-24.87-16.76-42.16-40.81-42.16s-40.81,17.3-40.81,42.16,16.76,42.16,40.81,42.16,40.81-17.3,40.81-42.16Z"/>
  </g>
  <g>
    <path class="cls-1" d="M932.35,184.58v12.4h-3.35v-12.4h-4.16v-2.97h11.67v2.97h-4.16Z"/>
    <path class="cls-1" d="M950.3,186.89h-.07l-1.12,2.25-3,5.44-2.93-5.42-1.17-2.42h-.07v10.24h-3.15v-15.37h3.55l3.77,7.2h.04l3.72-7.2h3.57v15.37h-3.15v-10.09Z"/>
  </g>
</svg>