<svg width="55" height="52" viewBox="0 0 55 52" fill="none" xmlns="http://www.w3.org/2000/svg">
<g clip-path="url(#clip0_416_276)">
<path d="M48.433 34.6319C48.6263 34.7452 48.8401 34.8189 49.0621 34.8489C49.2841 34.8789 49.5098 34.8645 49.7262 34.8065C49.9425 34.7486 50.1453 34.6482 50.3226 34.5113C50.4998 34.3744 50.6482 34.2036 50.759 34.0089L51.89 32.0499C56.876 23.4139 55.763 19.2609 47.127 14.2759L27.539 2.96595C18.903 -2.02005 14.75 -0.907052 9.76498 7.72895L9.19298 8.71895C9.07973 8.91222 9.00598 9.12605 8.97602 9.34804C8.94605 9.57003 8.96046 9.79576 9.01842 10.0121C9.07637 10.2285 9.17672 10.4312 9.31363 10.6085C9.45054 10.7858 9.62129 10.9342 9.81598 11.0449C10.2675 11.3034 10.6635 11.6484 10.9814 12.0602C11.2993 12.4721 11.5327 12.9426 11.6683 13.4449C11.8039 13.9471 11.839 14.4712 11.7715 14.9871C11.7041 15.5029 11.5355 16.0004 11.2754 16.4509C11.0153 16.9014 10.6688 17.2962 10.2557 17.6125C9.8427 17.9288 9.37128 18.1605 8.86852 18.2942C8.36576 18.4279 7.84154 18.461 7.32595 18.3916C6.81036 18.3222 6.31353 18.1518 5.86398 17.8899C5.67071 17.7767 5.45688 17.703 5.23489 17.673C5.0129 17.643 4.78717 17.6574 4.57079 17.7154C4.35442 17.7733 4.1517 17.8737 3.97441 18.0106C3.79711 18.1475 3.64877 18.3183 3.53798 18.5129L2.96598 19.5029C-2.02402 28.1389 -0.90702 32.2919 7.72898 37.2769L27.317 48.5869C35.953 53.5729 40.105 52.4599 45.091 43.8239C45.2042 43.6307 45.278 43.4168 45.3079 43.1949C45.3379 42.9729 45.3235 42.7471 45.2655 42.5308C45.2076 42.3144 45.1072 42.1117 44.9703 41.9344C44.8334 41.7571 44.6627 41.6087 44.468 41.4979C43.5575 40.9723 42.8931 40.1065 42.621 39.091C42.3489 38.0754 42.4913 36.9934 43.017 36.0829C43.5426 35.1725 44.4085 34.5081 45.424 34.236C46.4395 33.9639 47.5215 34.1063 48.432 34.6319H48.433ZM24.909 15.5459C25.3256 15.7864 25.6615 16.1451 25.8742 16.5765C26.087 17.0079 26.167 17.4927 26.1042 17.9696C26.0414 18.4465 25.8386 18.8941 25.5215 19.2557C25.2043 19.6174 24.787 19.8768 24.3224 20.0013C23.8578 20.1258 23.3667 20.1097 22.9112 19.955C22.4557 19.8004 22.0563 19.5142 21.7635 19.1325C21.4707 18.7509 21.2977 18.291 21.2662 17.811C21.2348 17.331 21.3464 16.8525 21.587 16.4359C21.9108 15.8788 22.442 15.4725 23.0644 15.3058C23.6869 15.139 24.35 15.2254 24.909 15.5459ZM29.034 37.5859C28.6141 37.349 28.2741 36.9927 28.0571 36.5621C27.8402 36.1315 27.7561 35.6462 27.8156 35.1677C27.8751 34.6893 28.0755 34.2393 28.3913 33.875C28.707 33.5106 29.124 33.2484 29.5891 33.1215C30.0543 32.9947 30.5466 33.0089 31.0037 33.1625C31.4607 33.3161 31.8618 33.602 32.1559 33.984C32.4501 34.366 32.6241 34.8268 32.6558 35.3079C32.6875 35.789 32.5755 36.2686 32.334 36.6859C32.1783 36.9635 31.969 37.2073 31.7182 37.4032C31.4674 37.5991 31.1801 37.7432 30.8731 37.8271C30.5661 37.9109 30.2455 37.9328 29.9299 37.8916C29.6144 37.8504 29.3101 37.7468 29.035 37.5869L29.034 37.5859ZM38.713 25.2019L16.354 31.1919C16.1226 31.2543 15.8813 31.2705 15.6437 31.2394C15.4061 31.2082 15.177 31.1305 14.9696 31.0107C14.7621 30.8908 14.5804 30.7312 14.4347 30.5409C14.2891 30.3507 14.1825 30.1335 14.121 29.9019C13.999 29.435 14.066 28.9389 14.3072 28.5209C14.5485 28.103 14.9447 27.7969 15.41 27.6689L37.769 21.6779C38.0002 21.616 38.2414 21.6001 38.4788 21.6314C38.7162 21.6626 38.9451 21.7403 39.1524 21.86C39.3598 21.9797 39.5415 22.139 39.6873 22.329C39.8331 22.5189 39.94 22.7357 40.002 22.9669C40.064 23.1982 40.0798 23.4394 40.0486 23.6768C40.0173 23.9142 39.9396 24.1431 39.82 24.3504C39.7003 24.5578 39.5409 24.7395 39.351 24.8853C39.161 25.031 38.9442 25.138 38.713 25.1999V25.2019Z" fill="#101E44"/>
</g>
<defs>
<clipPath id="clip0_416_276">
<rect width="54.855" height="51.552" fill="white"/>
</clipPath>
</defs>
</svg>
